<?xml version="1.0" encoding="utf-8"?>
<!-- Generator: Adobe Illustrator 19.0.1, SVG Export Plug-In . SVG Version: 6.00 Build 0)  -->
<svg version="1.1" id="Layer_1" xmlns="http://www.w3.org/2000/svg" xmlns:xlink="http://www.w3.org/1999/xlink" x="0px" y="0px"
	 viewBox="0 0 342.9 72" style="enable-background:new 0 0 342.9 72;" xml:space="preserve">
<style type="text/css">
	.st0{fill:#FCFCFC;}
</style>
<path class="st0" d="M156.5,28.6l-5.8,5.7c-3.7-3.9-7.9-5.8-12.8-5.8c-4.2,0-7.8,1.4-10.7,4.2C124.4,35.5,123,39,123,43
	c0,4.2,1.5,7.7,4.5,10.6c3,2.9,6.6,4.3,11,4.3c2.8,0,5.2-0.6,7.2-1.8c1.9-1.2,3.5-3.1,4.7-5.6h-12.5v-7.7h21.7l0.1,1.8
	c0,3.8-1,7.3-2.9,10.7c-2,3.4-4.5,6-7.6,7.7c-3.1,1.8-6.7,2.7-10.9,2.7c-4.5,0-8.5-1-12-2.9c-3.5-1.9-6.3-4.7-8.3-8.3
	c-2-3.6-3.1-7.5-3.1-11.6c0-5.7,1.9-10.7,5.7-14.9c4.5-5,10.3-7.5,17.5-7.5c3.8,0,7.3,0.7,10.5,2.1
	C151.2,23.7,153.9,25.7,156.5,28.6z M181.2,32c3,0,5.8,0.8,8.5,2.3c2.6,1.5,4.7,3.5,6.2,6.1c1.5,2.6,2.2,5.4,2.2,8.3
	c0,3-0.7,5.8-2.2,8.4c-1.5,2.6-3.5,4.7-6.1,6.1c-2.6,1.5-5.4,2.2-8.5,2.2c-4.6,0-8.5-1.6-11.7-4.9c-3.2-3.3-4.8-7.2-4.8-11.9
	c0-5,1.8-9.1,5.5-12.5C173.4,33.4,177,32,181.2,32z M181.3,39.5c-2.5,0-4.6,0.9-6.2,2.6c-1.7,1.7-2.5,3.9-2.5,6.6
	c0,2.8,0.8,5,2.5,6.7c1.6,1.7,3.7,2.6,6.2,2.6c2.5,0,4.6-0.9,6.3-2.6c1.7-1.7,2.5-4,2.5-6.7c0-2.7-0.8-5-2.5-6.7
	C186,40.3,183.9,39.5,181.3,39.5z M246,29.6l-3.4,2.6c-1.9-2.4-4.1-4.3-6.8-5.6c-2.6-1.3-5.5-1.9-8.7-1.9c-3.4,0-6.6,0.8-9.6,2.5
	c-2.9,1.7-5.2,3.9-6.8,6.7s-2.4,5.9-2.4,9.4c0,5.3,1.8,9.6,5.4,13.2s8.1,5.3,13.6,5.3c6,0,11.1-2.4,15.1-7.1l3.4,2.6
	c-2.1,2.7-4.8,4.8-8,6.3c-3.2,1.5-6.8,2.2-10.8,2.2c-7.5,0-13.5-2.5-17.8-7.5c-3.7-4.2-5.5-9.4-5.5-15.4c0-6.3,2.2-11.6,6.6-15.9
	s10-6.5,16.6-6.5c4,0,7.7,0.8,10.9,2.4C241.2,24.5,243.9,26.7,246,29.6z M269,32c4.9,0,9,1.8,12.2,5.3c2.9,3.2,4.4,7.1,4.4,11.5
	c0,4.5-1.6,8.3-4.7,11.7c-3.1,3.3-7.1,5-12,5c-4.9,0-8.9-1.7-12-5c-3.1-3.3-4.7-7.2-4.7-11.7c0-4.4,1.5-8.2,4.4-11.5
	C260,33.7,264.1,32,269,32z M269,36c-3.4,0-6.3,1.3-8.8,3.8c-2.5,2.5-3.7,5.6-3.7,9.1c0,2.3,0.6,4.5,1.7,6.4s2.6,3.5,4.5,4.6
	s4,1.6,6.3,1.6c2.3,0,4.4-0.5,6.3-1.6c1.9-1.1,3.4-2.6,4.5-4.6s1.7-4.1,1.7-6.4c0-3.6-1.2-6.6-3.7-9.1S272.4,36,269,36z M293.2,32.8
	h4.1v5.7c1.6-2.2,3.5-3.8,5.4-4.9s4.2-1.6,6.5-1.6c2.4,0,4.5,0.6,6.3,1.8c1.8,1.2,3.2,2.8,4.1,4.9s1.3,5.2,1.3,9.6v16.4h-4.1V49.5
	c0-3.7-0.2-6.1-0.5-7.4c-0.5-2.1-1.4-3.7-2.7-4.8c-1.3-1.1-3.1-1.6-5.3-1.6c-2.5,0-4.7,0.8-6.7,2.5s-3.3,3.7-3.9,6.1
	c-0.4,1.6-0.6,4.5-0.6,8.7v11.7h-4.1V32.8z M342.9,20.5v4c-1.5-0.6-2.8-1-3.9-1c-0.8,0-1.5,0.2-2,0.5s-0.9,0.7-1,1.1
	c-0.1,0.4-0.2,1.5-0.2,3.4l0,4.3h6.7v3.5h-6.7l0,28.3h-4.1V36.3h-4.2v-3.5h4.2v-5c0-2.3,0.2-3.9,0.6-4.9c0.4-1,1.1-1.8,2.1-2.4
	c1-0.6,2.2-0.9,3.6-0.9C339.5,19.7,341.1,19.9,342.9,20.5z M68,52.7c0.1,0,0.2,0,0.2,0c0.3,0,0.5-0.1,0.8-0.2l38.1-17.4
	c0.8-0.4,1.2-1.2,1-2.1c-0.2-0.8-0.9-1.5-1.8-1.5c-0.3,0-31.1-0.7-44.8-28C60.2,1,57-0.5,54.3,0.2L22.5,7.8
	c-1.5,0.4-2.8,1.3-3.4,2.7c-0.6,1.3-0.5,2.8,0.2,4.2C24.9,24.9,40.7,49.1,68,52.7z M22.5,12c0.1-0.3,0.4-0.5,0.8-0.6l31.8-7.7
	c0.2,0,0.3-0.1,0.5-0.1c1,0,2.1,0.7,2.6,1.6c10.6,21.2,30.7,27.4,41.3,29.3L67.9,48.9c-25.3-3.6-40.1-26.4-45.3-36
	C22.5,12.7,22.4,12.3,22.5,12z M0,68.1h67.2V72H0V68.1z M106.3,54.7v-3.9L68.2,68.1V72L106.3,54.7z M106.3,49.5h-9.9L68,63l-1.2,0
	c-17.2,0-31-3-41.4-6.6L0,66.7h67.3L106.3,49.5z M7.2,44c7.4,4.7,28,15.5,60.3,15.3l37.6-18c0,0-2,0-5.3-0.1L67.7,56l-0.5-0.1
	c-18.4-2.4-31.5-14.1-39.7-24.5l-19.9,9C5.7,41.2,5.5,42.9,7.2,44z"/>
</svg>
